<?xml version="1.0" encoding="UTF-8" standalone="no"?>
<!DOCTYPE svg PUBLIC "-//W3C//DTD SVG 1.1//EN"
 "http://www.w3.org/Graphics/SVG/1.1/DTD/svg11.dtd">
<!-- Generated by graphviz version 12.1.2 (20240928.0832)
 -->
<!-- Title: dependency&#45;cruiser output Pages: 1 -->
<svg width="599pt" height="513pt"
 viewBox="0.00 0.00 598.50 512.75" xmlns="http://www.w3.org/2000/svg" xmlns:xlink="http://www.w3.org/1999/xlink">
<g id="graph0" class="graph" transform="scale(1 1) rotate(0) translate(4 508.75)">
<title>dependency&#45;cruiser output</title>
<polygon fill="white" stroke="none" points="-4,4 -4,-508.75 594.5,-508.75 594.5,4 -4,4"/>
<g id="clust1" class="cluster">
<title>cluster_app</title>
<path fill="#ffffff" stroke="black" stroke-width="2" d="M20,-84C20,-84 91.25,-84 91.25,-84 97.25,-84 103.25,-90 103.25,-96 103.25,-96 103.25,-244 103.25,-244 103.25,-250 97.25,-256 91.25,-256 91.25,-256 20,-256 20,-256 14,-256 8,-250 8,-244 8,-244 8,-96 8,-96 8,-90 14,-84 20,-84"/>
<text text-anchor="middle" x="55.62" y="-243.45" font-family="Helvetica,sans-Serif" font-weight="bold" font-size="9.00">app</text>
</g>
<g id="clust2" class="cluster">
<title>cluster_app/(tabs)</title>
<path fill="#ffffff" stroke="black" stroke-width="2" d="M28,-178C28,-178 83.25,-178 83.25,-178 89.25,-178 95.25,-184 95.25,-190 95.25,-190 95.25,-218 95.25,-218 95.25,-224 89.25,-230 83.25,-230 83.25,-230 28,-230 28,-230 22,-230 16,-224 16,-218 16,-218 16,-190 16,-190 16,-184 22,-178 28,-178"/>
<text text-anchor="middle" x="55.62" y="-217.45" font-family="Helvetica,sans-Serif" font-weight="bold" font-size="9.00">(tabs)</text>
</g>
<g id="clust3" class="cluster">
<title>cluster_assets</title>
<path fill="#ffffff" stroke="black" stroke-width="2" d="M123.25,-8C123.25,-8 244.75,-8 244.75,-8 250.75,-8 256.75,-14 256.75,-20 256.75,-20 256.75,-82 256.75,-82 256.75,-88 250.75,-94 244.75,-94 244.75,-94 123.25,-94 123.25,-94 117.25,-94 111.25,-88 111.25,-82 111.25,-82 111.25,-20 111.25,-20 111.25,-14 117.25,-8 123.25,-8"/>
<text text-anchor="middle" x="184" y="-81.45" font-family="Helvetica,sans-Serif" font-weight="bold" font-size="9.00">assets</text>
</g>
<g id="clust4" class="cluster">
<title>cluster_assets/fonts</title>
<path fill="#ffffff" stroke="black" stroke-width="2" d="M131.25,-16C131.25,-16 236.75,-16 236.75,-16 242.75,-16 248.75,-22 248.75,-28 248.75,-28 248.75,-56 248.75,-56 248.75,-62 242.75,-68 236.75,-68 236.75,-68 131.25,-68 131.25,-68 125.25,-68 119.25,-62 119.25,-56 119.25,-56 119.25,-28 119.25,-28 119.25,-22 125.25,-16 131.25,-16"/>
<text text-anchor="middle" x="184" y="-55.45" font-family="Helvetica,sans-Serif" font-weight="bold" font-size="9.00">fonts</text>
</g>
<g id="clust5" class="cluster">
<title>cluster_components</title>
<path fill="#ffffff" stroke="black" stroke-width="2" d="M128.12,-202C128.12,-202 347.25,-202 347.25,-202 353.25,-202 359.25,-208 359.25,-214 359.25,-214 359.25,-448 359.25,-448 359.25,-454 353.25,-460 347.25,-460 347.25,-460 128.12,-460 128.12,-460 122.12,-460 116.12,-454 116.12,-448 116.12,-448 116.12,-214 116.12,-214 116.12,-208 122.12,-202 128.12,-202"/>
<text text-anchor="middle" x="237.69" y="-447.45" font-family="Helvetica,sans-Serif" font-weight="bold" font-size="9.00">components</text>
</g>
<g id="clust6" class="cluster">
<title>cluster_components/__tests__</title>
<path fill="#ffffff" stroke="black" stroke-width="2" d="M136.12,-296C136.12,-296 231.88,-296 231.88,-296 237.88,-296 243.88,-302 243.88,-308 243.88,-308 243.88,-336 243.88,-336 243.88,-342 237.88,-348 231.88,-348 231.88,-348 136.12,-348 136.12,-348 130.12,-348 124.12,-342 124.12,-336 124.12,-336 124.12,-308 124.12,-308 124.12,-302 130.12,-296 136.12,-296"/>
<text text-anchor="middle" x="184" y="-335.45" font-family="Helvetica,sans-Serif" font-weight="bold" font-size="9.00">__tests__</text>
</g>
<g id="clust7" class="cluster">
<title>cluster_components/navigation</title>
<path fill="#ffffff" stroke="black" stroke-width="2" d="M147.75,-236C147.75,-236 220.25,-236 220.25,-236 226.25,-236 232.25,-242 232.25,-248 232.25,-248 232.25,-276 232.25,-276 232.25,-282 226.25,-288 220.25,-288 220.25,-288 147.75,-288 147.75,-288 141.75,-288 135.75,-282 135.75,-276 135.75,-276 135.75,-248 135.75,-248 135.75,-242 141.75,-236 147.75,-236"/>
<text text-anchor="middle" x="184" y="-275.45" font-family="Helvetica,sans-Serif" font-weight="bold" font-size="9.00">navigation</text>
</g>
<g id="clust8" class="cluster">
<title>cluster_constants</title>
<path fill="#ffffff" stroke="black" stroke-width="2" d="M523.5,-378C523.5,-378 570.5,-378 570.5,-378 576.5,-378 582.5,-384 582.5,-390 582.5,-390 582.5,-418 582.5,-418 582.5,-424 576.5,-430 570.5,-430 570.5,-430 523.5,-430 523.5,-430 517.5,-430 511.5,-424 511.5,-418 511.5,-418 511.5,-390 511.5,-390 511.5,-384 517.5,-378 523.5,-378"/>
<text text-anchor="middle" x="547" y="-417.45" font-family="Helvetica,sans-Serif" font-weight="bold" font-size="9.00">constants</text>
</g>
<g id="clust9" class="cluster">
<title>cluster_hooks</title>
<path fill="#ffffff" stroke="black" stroke-width="2" d="M379.25,-219C379.25,-219 491.5,-219 491.5,-219 497.5,-219 503.5,-225 503.5,-231 503.5,-231 503.5,-319 503.5,-319 503.5,-325 497.5,-331 491.5,-331 491.5,-331 379.25,-331 379.25,-331 373.25,-331 367.25,-325 367.25,-319 367.25,-319 367.25,-231 367.25,-231 367.25,-225 373.25,-219 379.25,-219"/>
<text text-anchor="middle" x="435.38" y="-318.45" font-family="Helvetica,sans-Serif" font-weight="bold" font-size="9.00">hooks</text>
</g>
<!-- app/(tabs)/_layout.tsx -->
<g id="node1" class="node">
<title>app/(tabs)/_layout.tsx</title>
<g id="a_node1"><a xlink:href="app/(tabs)/_layout.tsx" xlink:title="_layout.tsx">
<path fill="#bbfeff" stroke="black" d="M81.33,-203.88C81.33,-203.88 29.92,-203.88 29.92,-203.88 26.96,-203.88 24,-200.92 24,-197.96 24,-197.96 24,-192.04 24,-192.04 24,-189.08 26.96,-186.12 29.92,-186.12 29.92,-186.12 81.33,-186.12 81.33,-186.12 84.29,-186.12 87.25,-189.08 87.25,-192.04 87.25,-192.04 87.25,-197.96 87.25,-197.96 87.25,-200.92 84.29,-203.88 81.33,-203.88"/>
<text text-anchor="start" x="32" y="-191.32" font-family="Helvetica,sans-Serif" font-size="9.00">_layout.tsx</text>
</a>
</g>
</g>
<!-- components/navigation/TabBarIcon.tsx -->
<g id="node2" class="node">
<title>components/navigation/TabBarIcon.tsx</title>
<g id="a_node2"><a xlink:href="components/navigation/TabBarIcon.tsx" xlink:title="TabBarIcon.tsx">
<path fill="#bbfeff" stroke="black" d="M218.33,-261.88C218.33,-261.88 149.67,-261.88 149.67,-261.88 146.71,-261.88 143.75,-258.92 143.75,-255.96 143.75,-255.96 143.75,-250.04 143.75,-250.04 143.75,-247.08 146.71,-244.12 149.67,-244.12 149.67,-244.12 218.33,-244.12 218.33,-244.12 221.29,-244.12 224.25,-247.08 224.25,-250.04 224.25,-250.04 224.25,-255.96 224.25,-255.96 224.25,-258.92 221.29,-261.88 218.33,-261.88"/>
<text text-anchor="start" x="151.75" y="-249.32" font-family="Helvetica,sans-Serif" font-size="9.00">TabBarIcon.tsx</text>
</a>
</g>
</g>
<!-- app/(tabs)/_layout.tsx&#45;&gt;components/navigation/TabBarIcon.tsx -->
<g id="edge1" class="edge">
<title>app/(tabs)/_layout.tsx&#45;&gt;components/navigation/TabBarIcon.tsx</title>
<path fill="none" stroke="#000000" stroke-width="2" stroke-opacity="0.200000" d="M64.91,-204.22C74.85,-214.65 92.52,-231.32 111.25,-240 118.59,-243.4 126.73,-245.92 134.82,-247.77"/>
<polygon fill="#000000" fill-opacity="0.200000" stroke="#000000" stroke-width="2" stroke-opacity="0.200000" points="134.28,-249.8 140.57,-248.94 135.11,-245.69 134.28,-249.8"/>
</g>
<!-- constants/Colors.ts -->
<g id="node3" class="node">
<title>constants/Colors.ts</title>
<g id="a_node3"><a xlink:href="constants/Colors.ts" xlink:title="Colors.ts">
<path fill="#ddfeff" stroke="black" d="M568.58,-403.88C568.58,-403.88 525.42,-403.88 525.42,-403.88 522.46,-403.88 519.5,-400.92 519.5,-397.96 519.5,-397.96 519.5,-392.04 519.5,-392.04 519.5,-389.08 522.46,-386.12 525.42,-386.12 525.42,-386.12 568.58,-386.12 568.58,-386.12 571.54,-386.12 574.5,-389.08 574.5,-392.04 574.5,-392.04 574.5,-397.96 574.5,-397.96 574.5,-400.92 571.54,-403.88 568.58,-403.88"/>
<text text-anchor="start" x="527.5" y="-391.32" font-family="Helvetica,sans-Serif" font-size="9.00">Colors.ts</text>
</a>
</g>
</g>
<!-- app/(tabs)/_layout.tsx&#45;&gt;constants/Colors.ts -->
<g id="edge2" class="edge">
<title>app/(tabs)/_layout.tsx&#45;&gt;constants/Colors.ts</title>
<path fill="none" stroke="#000000" stroke-width="2" stroke-opacity="0.200000" d="M57.01,-204.35C59.03,-247.79 69.88,-429.21 111.25,-463 237.44,-566.07 455.13,-450.2 524.26,-408.66"/>
<polygon fill="#000000" fill-opacity="0.200000" stroke="#000000" stroke-width="2" stroke-opacity="0.200000" points="524.96,-410.69 529,-405.78 522.78,-407.1 524.96,-410.69"/>
</g>
<!-- hooks/useColorScheme.ts -->
<g id="node4" class="node">
<title>hooks/useColorScheme.ts</title>
<g id="a_node4"><a xlink:href="hooks/useColorScheme.ts" xlink:title="useColorScheme.ts">
<path fill="#ddfeff" stroke="black" d="M479.83,-244.88C479.83,-244.88 390.92,-244.88 390.92,-244.88 387.96,-244.88 385,-241.92 385,-238.96 385,-238.96 385,-233.04 385,-233.04 385,-230.08 387.96,-227.12 390.92,-227.12 390.92,-227.12 479.83,-227.12 479.83,-227.12 482.79,-227.12 485.75,-230.08 485.75,-233.04 485.75,-233.04 485.75,-238.96 485.75,-238.96 485.75,-241.92 482.79,-244.88 479.83,-244.88"/>
<text text-anchor="start" x="393" y="-232.32" font-family="Helvetica,sans-Serif" font-size="9.00">useColorScheme.ts</text>
</a>
</g>
</g>
<!-- app/(tabs)/_layout.tsx&#45;&gt;hooks/useColorScheme.ts -->
<g id="edge3" class="edge">
<title>app/(tabs)/_layout.tsx&#45;&gt;hooks/useColorScheme.ts</title>
<path fill="none" stroke="#000000" stroke-width="2" stroke-opacity="0.200000" d="M87.68,-190.97C143.12,-184.74 262.43,-175.77 359.25,-199 378.45,-203.61 398.43,-213.74 412.95,-222.24"/>
<polygon fill="#000000" fill-opacity="0.200000" stroke="#000000" stroke-width="2" stroke-opacity="0.200000" points="411.61,-223.88 417.83,-225.19 413.78,-220.29 411.61,-223.88"/>
</g>
<!-- app/+html.tsx -->
<g id="node5" class="node">
<title>app/+html.tsx</title>
<g id="a_node5"><a xlink:href="app/+html.tsx" xlink:title="+html.tsx">
<path fill="#ccffcc" stroke="black" d="M77.58,-139.88C77.58,-139.88 33.67,-139.88 33.67,-139.88 30.71,-139.88 27.75,-136.92 27.75,-133.96 27.75,-133.96 27.75,-128.04 27.75,-128.04 27.75,-125.08 30.71,-122.12 33.67,-122.12 33.67,-122.12 77.58,-122.12 77.58,-122.12 80.54,-122.12 83.5,-125.08 83.5,-128.04 83.5,-128.04 83.5,-133.96 83.5,-133.96 83.5,-136.92 80.54,-139.88 77.58,-139.88"/>
<text text-anchor="start" x="35.75" y="-127.33" font-family="Helvetica,sans-Serif" font-size="9.00">+html.tsx</text>
</a>
</g>
</g>
<!-- app/+not&#45;found.tsx -->
<g id="node6" class="node">
<title>app/+not&#45;found.tsx</title>
<g id="a_node6"><a xlink:href="app/+not-found.tsx" xlink:title="+not&#45;found.tsx">
<path fill="#bbfeff" stroke="black" d="M88.46,-169.88C88.46,-169.88 22.79,-169.88 22.79,-169.88 19.83,-169.88 16.88,-166.92 16.88,-163.96 16.88,-163.96 16.88,-158.04 16.88,-158.04 16.88,-155.08 19.83,-152.12 22.79,-152.12 22.79,-152.12 88.46,-152.12 88.46,-152.12 91.42,-152.12 94.38,-155.08 94.38,-158.04 94.38,-158.04 94.38,-163.96 94.38,-163.96 94.38,-166.92 91.42,-169.88 88.46,-169.88"/>
<text text-anchor="start" x="24.88" y="-157.32" font-family="Helvetica,sans-Serif" font-size="9.00">+not&#45;found.tsx</text>
</a>
</g>
</g>
<!-- components/ThemedText.tsx -->
<g id="node7" class="node">
<title>components/ThemedText.tsx</title>
<g id="a_node7"><a xlink:href="components/ThemedText.tsx" xlink:title="ThemedText.tsx">
<path fill="#bbfeff" stroke="black" d="M344.21,-274.88C344.21,-274.88 271.79,-274.88 271.79,-274.88 268.83,-274.88 265.88,-271.92 265.88,-268.96 265.88,-268.96 265.88,-263.04 265.88,-263.04 265.88,-260.08 268.83,-257.12 271.79,-257.12 271.79,-257.12 344.21,-257.12 344.21,-257.12 347.17,-257.12 350.12,-260.08 350.12,-263.04 350.12,-263.04 350.12,-268.96 350.12,-268.96 350.12,-271.92 347.17,-274.88 344.21,-274.88"/>
<text text-anchor="start" x="273.88" y="-262.32" font-family="Helvetica,sans-Serif" font-size="9.00">ThemedText.tsx</text>
</a>
</g>
</g>
<!-- app/+not&#45;found.tsx&#45;&gt;components/ThemedText.tsx -->
<g id="edge4" class="edge">
<title>app/+not&#45;found.tsx&#45;&gt;components/ThemedText.tsx</title>
<path fill="none" stroke="#000000" stroke-width="2" stroke-opacity="0.200000" d="M94.71,-153.12C100.23,-152.24 105.87,-151.49 111.25,-151 175.65,-145.15 202.64,-115.59 256.75,-151 289.87,-172.68 301.29,-221.51 305.13,-248.03"/>
<polygon fill="#000000" fill-opacity="0.200000" stroke="#000000" stroke-width="2" stroke-opacity="0.200000" points="303.01,-248.01 305.85,-253.7 307.18,-247.49 303.01,-248.01"/>
</g>
<!-- components/ThemedView.tsx -->
<g id="node8" class="node">
<title>components/ThemedView.tsx</title>
<g id="a_node8"><a xlink:href="components/ThemedView.tsx" xlink:title="ThemedView.tsx">
<path fill="#bbfeff" stroke="black" d="M345.33,-340.88C345.33,-340.88 270.67,-340.88 270.67,-340.88 267.71,-340.88 264.75,-337.92 264.75,-334.96 264.75,-334.96 264.75,-329.04 264.75,-329.04 264.75,-326.08 267.71,-323.12 270.67,-323.12 270.67,-323.12 345.33,-323.12 345.33,-323.12 348.29,-323.12 351.25,-326.08 351.25,-329.04 351.25,-329.04 351.25,-334.96 351.25,-334.96 351.25,-337.92 348.29,-340.88 345.33,-340.88"/>
<text text-anchor="start" x="272.75" y="-328.32" font-family="Helvetica,sans-Serif" font-size="9.00">ThemedView.tsx</text>
</a>
</g>
</g>
<!-- app/+not&#45;found.tsx&#45;&gt;components/ThemedView.tsx -->
<g id="edge5" class="edge">
<title>app/+not&#45;found.tsx&#45;&gt;components/ThemedView.tsx</title>
<path fill="none" stroke="#000000" stroke-width="2" stroke-opacity="0.200000" d="M94.74,-157.11C140.51,-154.78 216.17,-158.77 256.75,-204 268.24,-216.8 258.09,-265.14 264.75,-281 270.41,-294.48 280.87,-307.15 289.97,-316.49"/>
<polygon fill="#000000" fill-opacity="0.200000" stroke="#000000" stroke-width="2" stroke-opacity="0.200000" points="288.35,-317.84 294.1,-320.54 291.29,-314.84 288.35,-317.84"/>
</g>
<!-- hooks/useThemeColor.ts -->
<g id="node15" class="node">
<title>hooks/useThemeColor.ts</title>
<g id="a_node15"><a xlink:href="hooks/useThemeColor.ts" xlink:title="useThemeColor.ts">
<path fill="#ddfeff" stroke="black" d="M476.46,-274.88C476.46,-274.88 394.29,-274.88 394.29,-274.88 391.33,-274.88 388.38,-271.92 388.38,-268.96 388.38,-268.96 388.38,-263.04 388.38,-263.04 388.38,-260.08 391.33,-257.12 394.29,-257.12 394.29,-257.12 476.46,-257.12 476.46,-257.12 479.42,-257.12 482.38,-260.08 482.38,-263.04 482.38,-263.04 482.38,-268.96 482.38,-268.96 482.38,-271.92 479.42,-274.88 476.46,-274.88"/>
<text text-anchor="start" x="396.38" y="-262.32" font-family="Helvetica,sans-Serif" font-size="9.00">useThemeColor.ts</text>
</a>
</g>
</g>
<!-- components/ThemedText.tsx&#45;&gt;hooks/useThemeColor.ts -->
<g id="edge13" class="edge">
<title>components/ThemedText.tsx&#45;&gt;hooks/useThemeColor.ts</title>
<path fill="none" stroke="#000000" stroke-width="2" stroke-opacity="0.200000" d="M350.4,-266C359.68,-266 369.67,-266 379.41,-266"/>
<polygon fill="#000000" fill-opacity="0.200000" stroke="#000000" stroke-width="2" stroke-opacity="0.200000" points="379.23,-268.1 385.23,-266 379.23,-263.9 379.23,-268.1"/>
</g>
<!-- components/ThemedView.tsx&#45;&gt;hooks/useThemeColor.ts -->
<g id="edge14" class="edge">
<title>components/ThemedView.tsx&#45;&gt;hooks/useThemeColor.ts</title>
<path fill="none" stroke="#000000" stroke-width="2" stroke-opacity="0.200000" d="M316.68,-322.91C326.98,-311.34 346.39,-291.58 367.25,-281 371.21,-278.99 375.43,-277.25 379.76,-275.74"/>
<polygon fill="#000000" fill-opacity="0.200000" stroke="#000000" stroke-width="2" stroke-opacity="0.200000" points="380.18,-277.81 385.28,-274.02 378.93,-273.8 380.18,-277.81"/>
</g>
<!-- app/_layout.tsx -->
<g id="node9" class="node">
<title>app/_layout.tsx</title>
<g id="a_node9"><a xlink:href="app/_layout.tsx" xlink:title="_layout.tsx">
<path fill="#bbfeff" stroke="black" d="M81.33,-109.88C81.33,-109.88 29.92,-109.88 29.92,-109.88 26.96,-109.88 24,-106.92 24,-103.96 24,-103.96 24,-98.04 24,-98.04 24,-95.08 26.96,-92.12 29.92,-92.12 29.92,-92.12 81.33,-92.12 81.33,-92.12 84.29,-92.12 87.25,-95.08 87.25,-98.04 87.25,-98.04 87.25,-103.96 87.25,-103.96 87.25,-106.92 84.29,-109.88 81.33,-109.88"/>
<text text-anchor="start" x="32" y="-97.33" font-family="Helvetica,sans-Serif" font-size="9.00">_layout.tsx</text>
</a>
</g>
</g>
<!-- app/_layout.tsx&#45;&gt;hooks/useColorScheme.ts -->
<g id="edge7" class="edge">
<title>app/_layout.tsx&#45;&gt;hooks/useColorScheme.ts</title>
<path fill="none" stroke="#000000" stroke-width="2" stroke-opacity="0.200000" d="M87.49,-102.56C127.4,-105.27 198.69,-112.46 256.75,-131 305.41,-146.54 315.49,-156.65 359.25,-183 379.05,-194.92 400.48,-210.31 415.36,-221.43"/>
<polygon fill="#000000" fill-opacity="0.200000" stroke="#000000" stroke-width="2" stroke-opacity="0.200000" points="414.03,-223.06 420.09,-224.99 416.56,-219.7 414.03,-223.06"/>
</g>
<!-- assets/fonts/SpaceMono&#45;Regular.ttf -->
<g id="node10" class="node">
<title>assets/fonts/SpaceMono&#45;Regular.ttf</title>
<g id="a_node10"><a xlink:href="assets/fonts/SpaceMono-Regular.ttf" xlink:title="SpaceMono&#45;Regular.ttf">
<path fill="#ffffcc" stroke="black" d="M234.83,-41.88C234.83,-41.88 133.17,-41.88 133.17,-41.88 130.21,-41.88 127.25,-38.92 127.25,-35.96 127.25,-35.96 127.25,-30.04 127.25,-30.04 127.25,-27.08 130.21,-24.12 133.17,-24.12 133.17,-24.12 234.83,-24.12 234.83,-24.12 237.79,-24.12 240.75,-27.08 240.75,-30.04 240.75,-30.04 240.75,-35.96 240.75,-35.96 240.75,-38.92 237.79,-41.88 234.83,-41.88"/>
<text text-anchor="start" x="135.25" y="-29.32" font-family="Helvetica,sans-Serif" font-size="9.00">SpaceMono&#45;Regular.ttf</text>
</a>
</g>
</g>
<!-- app/_layout.tsx&#45;&gt;assets/fonts/SpaceMono&#45;Regular.ttf -->
<g id="edge6" class="edge">
<title>app/_layout.tsx&#45;&gt;assets/fonts/SpaceMono&#45;Regular.ttf</title>
<path fill="none" stroke="#000000" stroke-width="2" stroke-opacity="0.200000" d="M73.93,-91.69C95.67,-79.99 133.14,-59.83 158,-46.45"/>
<polygon fill="#000000" fill-opacity="0.200000" stroke="#000000" stroke-width="2" stroke-opacity="0.200000" points="158.95,-48.33 163.24,-43.63 156.96,-44.63 158.95,-48.33"/>
</g>
<!-- components/Collapsible.tsx -->
<g id="node11" class="node">
<title>components/Collapsible.tsx</title>
<g id="a_node11"><a xlink:href="components/Collapsible.tsx" xlink:title="Collapsible.tsx">
<path fill="#bbfeff" stroke="black" d="M217.58,-403.88C217.58,-403.88 150.42,-403.88 150.42,-403.88 147.46,-403.88 144.5,-400.92 144.5,-397.96 144.5,-397.96 144.5,-392.04 144.5,-392.04 144.5,-389.08 147.46,-386.12 150.42,-386.12 150.42,-386.12 217.58,-386.12 217.58,-386.12 220.54,-386.12 223.5,-389.08 223.5,-392.04 223.5,-392.04 223.5,-397.96 223.5,-397.96 223.5,-400.92 220.54,-403.88 217.58,-403.88"/>
<text text-anchor="start" x="152.5" y="-391.32" font-family="Helvetica,sans-Serif" font-size="9.00">Collapsible.tsx</text>
</a>
</g>
</g>
<!-- components/Collapsible.tsx&#45;&gt;constants/Colors.ts -->
<g id="edge10" class="edge">
<title>components/Collapsible.tsx&#45;&gt;constants/Colors.ts</title>
<path fill="none" stroke="#000000" stroke-width="2" stroke-opacity="0.200000" d="M223.98,-395C294.64,-395 442.86,-395 510.72,-395"/>
<polygon fill="#000000" fill-opacity="0.200000" stroke="#000000" stroke-width="2" stroke-opacity="0.200000" points="510.33,-397.1 516.33,-395 510.33,-392.9 510.33,-397.1"/>
</g>
<!-- components/Collapsible.tsx&#45;&gt;components/ThemedText.tsx -->
<g id="edge8" class="edge">
<title>components/Collapsible.tsx&#45;&gt;components/ThemedText.tsx</title>
<path fill="none" stroke="#000000" stroke-width="2" stroke-opacity="0.200000" d="M223.96,-395.32C236.05,-393.42 248.38,-389.07 256.75,-380 266.32,-369.63 259.14,-329.95 264.75,-317 270.56,-303.59 281.02,-290.92 290.08,-281.56"/>
<polygon fill="#000000" fill-opacity="0.200000" stroke="#000000" stroke-width="2" stroke-opacity="0.200000" points="291.4,-283.21 294.19,-277.5 288.45,-280.23 291.4,-283.21"/>
</g>
<!-- components/Collapsible.tsx&#45;&gt;components/ThemedView.tsx -->
<g id="edge9" class="edge">
<title>components/Collapsible.tsx&#45;&gt;components/ThemedView.tsx</title>
<path fill="none" stroke="#000000" stroke-width="2" stroke-opacity="0.200000" d="M223.97,-390.91C235,-388.69 246.73,-385.27 256.75,-380 271.67,-372.15 285.28,-358.57 294.56,-347.85"/>
<polygon fill="#000000" fill-opacity="0.200000" stroke="#000000" stroke-width="2" stroke-opacity="0.200000" points="296.1,-349.28 298.32,-343.32 292.87,-346.59 296.1,-349.28"/>
</g>
<!-- components/ExternalLink.tsx -->
<g id="node12" class="node">
<title>components/ExternalLink.tsx</title>
<g id="a_node12"><a xlink:href="components/ExternalLink.tsx" xlink:title="ExternalLink.tsx">
<path fill="#ccffcc" stroke="black" d="M220.96,-373.88C220.96,-373.88 147.04,-373.88 147.04,-373.88 144.08,-373.88 141.12,-370.92 141.12,-367.96 141.12,-367.96 141.12,-362.04 141.12,-362.04 141.12,-359.08 144.08,-356.12 147.04,-356.12 147.04,-356.12 220.96,-356.12 220.96,-356.12 223.92,-356.12 226.88,-359.08 226.88,-362.04 226.88,-362.04 226.88,-367.96 226.88,-367.96 226.88,-370.92 223.92,-373.88 220.96,-373.88"/>
<text text-anchor="start" x="149.12" y="-361.32" font-family="Helvetica,sans-Serif" font-size="9.00">ExternalLink.tsx</text>
</a>
</g>
</g>
<!-- components/HelloWave.tsx -->
<g id="node13" class="node">
<title>components/HelloWave.tsx</title>
<g id="a_node13"><a xlink:href="components/HelloWave.tsx" xlink:title="HelloWave.tsx">
<path fill="#bbfeff" stroke="black" d="M216.83,-227.88C216.83,-227.88 151.17,-227.88 151.17,-227.88 148.21,-227.88 145.25,-224.92 145.25,-221.96 145.25,-221.96 145.25,-216.04 145.25,-216.04 145.25,-213.08 148.21,-210.12 151.17,-210.12 151.17,-210.12 216.83,-210.12 216.83,-210.12 219.79,-210.12 222.75,-213.08 222.75,-216.04 222.75,-216.04 222.75,-221.96 222.75,-221.96 222.75,-224.92 219.79,-227.88 216.83,-227.88"/>
<text text-anchor="start" x="153.25" y="-215.32" font-family="Helvetica,sans-Serif" font-size="9.00">HelloWave.tsx</text>
</a>
</g>
</g>
<!-- components/HelloWave.tsx&#45;&gt;components/ThemedText.tsx -->
<g id="edge11" class="edge">
<title>components/HelloWave.tsx&#45;&gt;components/ThemedText.tsx</title>
<path fill="none" stroke="#000000" stroke-width="2" stroke-opacity="0.200000" d="M223.04,-223.59C234.16,-225.68 246.17,-228.69 256.75,-233 268.08,-237.61 279.56,-244.92 288.69,-251.48"/>
<polygon fill="#000000" fill-opacity="0.200000" stroke="#000000" stroke-width="2" stroke-opacity="0.200000" points="287.26,-253.03 293.32,-254.94 289.77,-249.67 287.26,-253.03"/>
</g>
<!-- components/ParallaxScrollView.tsx -->
<g id="node14" class="node">
<title>components/ParallaxScrollView.tsx</title>
<g id="a_node14"><a xlink:href="components/ParallaxScrollView.tsx" xlink:title="ParallaxScrollView.tsx">
<path fill="#bbfeff" stroke="black" d="M234.08,-433.88C234.08,-433.88 133.92,-433.88 133.92,-433.88 130.96,-433.88 128,-430.92 128,-427.96 128,-427.96 128,-422.04 128,-422.04 128,-419.08 130.96,-416.12 133.92,-416.12 133.92,-416.12 234.08,-416.12 234.08,-416.12 237.04,-416.12 240,-419.08 240,-422.04 240,-422.04 240,-427.96 240,-427.96 240,-430.92 237.04,-433.88 234.08,-433.88"/>
<text text-anchor="start" x="136" y="-421.32" font-family="Helvetica,sans-Serif" font-size="9.00">ParallaxScrollView.tsx</text>
</a>
</g>
</g>
<!-- components/ParallaxScrollView.tsx&#45;&gt;components/ThemedView.tsx -->
<g id="edge12" class="edge">
<title>components/ParallaxScrollView.tsx&#45;&gt;components/ThemedView.tsx</title>
<path fill="none" stroke="#000000" stroke-width="2" stroke-opacity="0.200000" d="M240.16,-418.24C246.05,-416.15 251.72,-413.46 256.75,-410 278.54,-395.02 293.04,-367.18 300.65,-349.14"/>
<polygon fill="#000000" fill-opacity="0.200000" stroke="#000000" stroke-width="2" stroke-opacity="0.200000" points="302.44,-350.32 302.71,-343.97 298.54,-348.77 302.44,-350.32"/>
</g>
<!-- hooks/useThemeColor.ts&#45;&gt;constants/Colors.ts -->
<g id="edge16" class="edge">
<title>hooks/useThemeColor.ts&#45;&gt;constants/Colors.ts</title>
<path fill="none" stroke="#000000" stroke-width="2" stroke-opacity="0.200000" d="M482.6,-269.97C490.22,-272.32 497.56,-275.82 503.5,-281 531.9,-305.75 541.35,-351.34 544.48,-376.72"/>
<polygon fill="#000000" fill-opacity="0.200000" stroke="#000000" stroke-width="2" stroke-opacity="0.200000" points="542.39,-376.91 545.1,-382.65 546.56,-376.47 542.39,-376.91"/>
</g>
<!-- components/__tests__/ThemedText&#45;test.tsx -->
<g id="node16" class="node">
<title>components/__tests__/ThemedText&#45;test.tsx</title>
<g id="a_node16"><a xlink:href="components/__tests__/ThemedText-test.tsx" xlink:title="ThemedText&#45;test.tsx">
<path fill="#bbfeff" stroke="black" d="M229.96,-321.88C229.96,-321.88 138.04,-321.88 138.04,-321.88 135.08,-321.88 132.12,-318.92 132.12,-315.96 132.12,-315.96 132.12,-310.04 132.12,-310.04 132.12,-307.08 135.08,-304.12 138.04,-304.12 138.04,-304.12 229.96,-304.12 229.96,-304.12 232.92,-304.12 235.88,-307.08 235.88,-310.04 235.88,-310.04 235.88,-315.96 235.88,-315.96 235.88,-318.92 232.92,-321.88 229.96,-321.88"/>
<text text-anchor="start" x="140.12" y="-309.32" font-family="Helvetica,sans-Serif" font-size="9.00">ThemedText&#45;test.tsx</text>
</a>
</g>
</g>
<!-- components/__tests__/ThemedText&#45;test.tsx&#45;&gt;components/ThemedText.tsx -->
<g id="edge15" class="edge">
<title>components/__tests__/ThemedText&#45;test.tsx&#45;&gt;components/ThemedText.tsx</title>
<path fill="none" stroke="#000000" stroke-width="2" stroke-opacity="0.200000" d="M219.34,-303.72C231.32,-300.15 244.77,-295.78 256.75,-291 265.21,-287.62 274.2,-283.38 282.2,-279.35"/>
<polygon fill="#000000" fill-opacity="0.200000" stroke="#000000" stroke-width="2" stroke-opacity="0.200000" points="283.04,-281.27 287.42,-276.66 281.12,-277.54 283.04,-281.27"/>
</g>
<!-- hooks/useColorScheme.web.ts -->
<g id="node17" class="node">
<title>hooks/useColorScheme.web.ts</title>
<g id="a_node17"><a xlink:href="hooks/useColorScheme.web.ts" xlink:title="useColorScheme.web.ts">
<path fill="#ccffcc" stroke="black" d="M489.58,-304.88C489.58,-304.88 381.17,-304.88 381.17,-304.88 378.21,-304.88 375.25,-301.92 375.25,-298.96 375.25,-298.96 375.25,-293.04 375.25,-293.04 375.25,-290.08 378.21,-287.12 381.17,-287.12 381.17,-287.12 489.58,-287.12 489.58,-287.12 492.54,-287.12 495.5,-290.08 495.5,-293.04 495.5,-293.04 495.5,-298.96 495.5,-298.96 495.5,-301.92 492.54,-304.88 489.58,-304.88"/>
<text text-anchor="start" x="383.25" y="-292.32" font-family="Helvetica,sans-Serif" font-size="9.00">useColorScheme.web.ts</text>
</a>
</g>
</g>
</g>
</svg>
